<svg width="18" height="18" viewBox="0 0 18 18" fill="none" xmlns="http://www.w3.org/2000/svg">
<path d="M1 14.222L1.39872 13.8227C1.19389 14.0827 1.05712 14.3892 1 14.714V14.222ZM3.77118 17H3.26397C3.59587 16.9445 3.90908 16.8059 4.1739 16.5967L3.77118 17ZM16.9994 3.34762V3.34766C17.0074 3.606 16.9325 3.79523 16.7497 3.97833L16.0496 4.67937L13.2854 1.94375L13.9545 1.27373L13.2469 0.567123L13.9545 1.27373C14.1383 1.08966 14.3449 1 14.6385 1C14.9311 1 15.1375 1.08941 15.3216 1.27373L16.7004 2.65455C16.8981 2.85246 16.9908 3.067 16.9994 3.34762Z" stroke="white" stroke-width="2"/>
</svg>
